HIERARCHY
ROOT reference
{
  OFFSET 0 0 0
  CHANNELS 6 Xposition Yposition Zposition Zrotation Xrotation Yrotation
  JOINT Hips
  {
    OFFSET 356.501 91.4882 232.072
    CHANNELS 3 Zrotation Xrotation Yrotation
    JOINT RightUpLeg
    {
      OFFSET -9.22368 -1.56954 0.0182318
      CHANNELS 3 Zrotation Xrotation Yrotation
      JOINT RightLeg
      {
        OFFSET 0.0168043 -41.8502 0.039304
        CHANNELS 3 Zrotation Xrotation Yrotation
        JOINT RightFoot
        {
          OFFSET -1.24655 -41.4872 1.84727
          CHANNELS 3 Zrotation Xrotation Yrotation
          End Site
          {
            OFFSET 0 -7.69 17.5
          }
        }
      }
    }
    JOINT LeftUpLeg
    {
      OFFSET 9.32755 -1.5915 0.117934
      CHANNELS 3 Zrotation Xrotation Yrotation
      JOINT LeftLeg
      {
        OFFSET 0.115891 -41.8441 0.138627
        CHANNELS 3 Zrotation Xrotation Yrotation
        JOINT LeftFoot
        {
          OFFSET -0.00258131 -42.0603 -2.16995
          CHANNELS 3 Zrotation Xrotation Yrotation
          End Site
          {
            OFFSET 0 -7.69 17.5
          }
        }
      }
    }
    JOINT Spine
    {
      OFFSET 0.0618908 14.3142 0.263402
      CHANNELS 3 Zrotation Xrotation Yrotation
      JOINT Spine1
      {
        OFFSET 0.00953893 9.71784 0.0772804
        CHANNELS 3 Zrotation Xrotation Yrotation
        JOINT Spine2
        {
          OFFSET 0.0659978 10.1164 -0.109334
          CHANNELS 3 Zrotation Xrotation Yrotation
          JOINT Spine3
          {
            OFFSET 0.00354353 9.7233 0.0181573
            CHANNELS 3 Zrotation Xrotation Yrotation
            JOINT Neck
            {
              OFFSET -0.106539 10.3631 0.143191
              CHANNELS 3 Zrotation Xrotation Yrotation
              JOINT Head
              {
                OFFSET 0.0687213 9.49492 0.178169
                CHANNELS 3 Zrotation Xrotation Yrotation
                End Site
                {
                  OFFSET 0 15.95 0
                }
              }
            }
            JOINT RightShoulder
            {
              OFFSET -3.17341 6.93407 0.0508814
              CHANNELS 3 Zrotation Xrotation Yrotation
              JOINT RightArm
              {
                OFFSET -12.8122 0.02699 0.0058978
                CHANNELS 3 Zrotation Xrotation Yrotation
                JOINT RightForeArm
                {
                  OFFSET -26.4689 -0.0132424 0.0432591
                  CHANNELS 3 Zrotation Xrotation Yrotation
                  JOINT RightHand
                  {
                    OFFSET -25.9762 -0.0747187 0.0544432
                    CHANNELS 3 Zrotation Xrotation Yrotation
                    JOINT RightHandThumb1
                    {
                      OFFSET -2.48905 0.190105 3.12053
                      CHANNELS 3 Zrotation Xrotation Yrotation
                      JOINT RightHandThumb2
                      {
                        OFFSET -3.68274 0 0
                        CHANNELS 3 Zrotation Xrotation Yrotation
                        JOINT RightHandThumb3
                        {
                          OFFSET -2.55832 0 0
                          CHANNELS 3 Zrotation Xrotation Yrotation
                          End Site
                          {
                            OFFSET -2.194 0 0
                          }
                        }
                      }
                    }
                    JOINT RightInHandIndex
                    {
                      OFFSET -3.22368 0.508421 1.97842
                      CHANNELS 3 Zrotation Xrotation Yrotation
                      JOINT RightHandIndex1
                      {
                        OFFSET -5.21684 -0.091368 0.999158
                        CHANNELS 3 Zrotation Xrotation Yrotation
                        JOINT RightHandIndex2
                        {
                          OFFSET -3.61937 0 0
                          CHANNELS 3 Zrotation Xrotation Yrotation
                          JOINT RightHandIndex3
                          {
                            OFFSET -2.0521 0 0
                            CHANNELS 3 Zrotation Xrotation Yrotation
                            End Site
                            {
                              OFFSET -1.805 0 0
                            }
                          }
                        }
                      }
                    }
                    JOINT RightInHandMiddle
                    {
                      OFFSET -3.38211 0.517263 0.756737
                      CHANNELS 3 Zrotation Xrotation Yrotation
                      JOINT RightHandMiddle1
                      {
                        OFFSET -5.17411 -0.084 0.313895
                        CHANNELS 3 Zrotation Xrotation Yrotation
                        JOINT RightHandMiddle2
                        {
                          OFFSET -3.94947 0 0
                          CHANNELS 3 Zrotation Xrotation Yrotation
                          JOINT RightHandMiddle3
                          {
                            OFFSET -2.47579 0 0
                            CHANNELS 3 Zrotation Xrotation Yrotation
                            End Site
                            {
                              OFFSET -1.975 0 0
                            }
                          }
                        }
                      }
                    }
                    JOINT RightInHandRing
                    {
                      OFFSET -3.36516 0.537895 -0.128947
                      CHANNELS 3 Zrotation Xrotation Yrotation
                      JOINT RightHandRing1
                      {
                        OFFSET -4.63474 -0.022105 -0.478947
                        CHANNELS 3 Zrotation Xrotation Yrotation
                        JOINT RightHandRing2
                        {
                          OFFSET -3.44238 0 0
                          CHANNELS 3 Zrotation Xrotation Yrotation
                          JOINT RightHandRing3
                          {
                            OFFSET -2.3881 0 0
                            CHANNELS 3 Zrotation Xrotation Yrotation
                            End Site
                            {
                              OFFSET -1.857 0 0
                            }
                          }
                        }
                      }
                    }
                    JOINT RightInHandPinky
                    {
                      OFFSET -3.16105 0.469368 -1.20179
                      CHANNELS 3 Zrotation Xrotation Yrotation
                      JOINT RightHandPinky1
                      {
                        OFFSET -4.14105 -0.022105 -1.09053
                        CHANNELS 3 Zrotation Xrotation Yrotation
                        JOINT RightHandPinky2
                        {
                          OFFSET -2.75653 0 0
                          CHANNELS 3 Zrotation Xrotation Yrotation
                          JOINT RightHandPinky3
                          {
                            OFFSET -1.74189 0 0
                            CHANNELS 3 Zrotation Xrotation Yrotation
                            End Site
                            {
                              OFFSET -1.645 0 0
                            }
                          }
                        }
                      }
                    }
                  }
                }
              }
            }
            JOINT LeftShoulder
            {
              OFFSET 3.13763 6.93537 0.265461
              CHANNELS 3 Zrotation Xrotation Yrotation
              JOINT LeftArm
              {
                OFFSET 12.4516 -0.0856895 0.350644
                CHANNELS 3 Zrotation Xrotation Yrotation
                JOINT LeftForeArm
                {
                  OFFSET 26.6962 -0.139113 0.0812581
                  CHANNELS 3 Zrotation Xrotation Yrotation
                  JOINT LeftHand
                  {
                    OFFSET 25.9561 0.0264111 -0.243705
                    CHANNELS 3 Zrotation Xrotation Yrotation
                    JOINT LeftHandThumb1
                    {
                      OFFSET 2.48905 0.190105 3.12053
                      CHANNELS 3 Zrotation Xrotation Yrotation
                      JOINT LeftHandThumb2
                      {
                        OFFSET 3.68274 0 0
                        CHANNELS 3 Zrotation Xrotation Yrotation
                        JOINT LeftHandThumb3
                        {
                          OFFSET 2.55832 0 0
                          CHANNELS 3 Zrotation Xrotation Yrotation
                          End Site
                          {
                            OFFSET 2.194 0 0
                          }
                        }
                      }
                    }
                    JOINT LeftInHandIndex
                    {
                      OFFSET 3.22368 0.508421 1.97842
                      CHANNELS 3 Zrotation Xrotation Yrotation
                      JOINT LeftHandIndex1
                      {
                        OFFSET 5.21684 -0.091368 0.999158
                        CHANNELS 3 Zrotation Xrotation Yrotation
                        JOINT LeftHandIndex2
                        {
                          OFFSET 3.61937 0 0
                          CHANNELS 3 Zrotation Xrotation Yrotation
                          JOINT LeftHandIndex3
                          {
                            OFFSET 2.0521 0 0
                            CHANNELS 3 Zrotation Xrotation Yrotation
                            End Site
                            {
                              OFFSET 1.805 0 0
                            }
                          }
                        }
                      }
                    }
                    JOINT LeftInHandMiddle
                    {
                      OFFSET 3.38211 0.517263 0.756737
                      CHANNELS 3 Zrotation Xrotation Yrotation
                      JOINT LeftHandMiddle1
                      {
                        OFFSET 5.17411 -0.084 0.313895
                        CHANNELS 3 Zrotation Xrotation Yrotation
                        JOINT LeftHandMiddle2
                        {
                          OFFSET 3.94947 0 0
                          CHANNELS 3 Zrotation Xrotation Yrotation
                          JOINT LeftHandMiddle3
                          {
                            OFFSET 2.47579 0 0
                            CHANNELS 3 Zrotation Xrotation Yrotation
                            End Site
                            {
                              OFFSET 1.975 0 0
                            }
                          }
                        }
                      }
                    }
                    JOINT LeftInHandRing
                    {
                      OFFSET 3.36516 0.537895 -0.128947
                      CHANNELS 3 Zrotation Xrotation Yrotation
                      JOINT LeftHandRing1
                      {
                        OFFSET 4.63474 -0.022105 -0.478947
                        CHANNELS 3 Zrotation Xrotation Yrotation
                        JOINT LeftHandRing2
                        {
                          OFFSET 3.44238 0 0
                          CHANNELS 3 Zrotation Xrotation Yrotation
                          JOINT LeftHandRing3
                          {
                            OFFSET 2.3881 0 0
                            CHANNELS 3 Zrotation Xrotation Yrotation
                            End Site
                            {
                              OFFSET 1.857 0 0
                            }
                          }
                        }
                      }
                    }
                    JOINT LeftInHandPinky
                    {
                      OFFSET 3.16105 0.469368 -1.20179
                      CHANNELS 3 Zrotation Xrotation Yrotation
                      JOINT LeftHandPinky1
                      {
                        OFFSET 4.14105 -0.022105 -1.09053
                        CHANNELS 3 Zrotation Xrotation Yrotation
                        JOINT LeftHandPinky2
                        {
                          OFFSET 2.75653 0 0
                          CHANNELS 3 Zrotation Xrotation Yrotation
                          JOINT LeftHandPinky3
                          {
                            OFFSET 1.74189 0 0
                            CHANNELS 3 Zrotation Xrotation Yrotation
                            End Site
                            {
                              OFFSET 1.645 0 0
                            }
                          }
                        }
                      }
                    }
                  }
                }
              }
            }
          }
        }
      }
    }
  }
}
MOTION
Frames:	4
Frame Time:	0.00833333
0 0 0 0 0 -0 23.2836 13.2409 -70.9403 -17.1262 -51.5673 -18.75 -0.874574 26.0447 -15.6551 11.5384 4.73299 26.3589 18.479 -42.9032 4.86504 2.55733 32.0967 0.716886 -13.5085 -13.0475 -16.4781 -8.57105 14.169 16.2129 -1.76852 3.7209 3.81929 -2.94019 5.95429 6.18554 -0.0993761 -0.160117 -0.474899 -0.0994013 -0.160784 -0.475449 -1.97504 -3.22539 -8.34101 -0.167782 -15.4934 22.2296 72.742 1.87319 52.1212 6.16752 -50.4212 -6.55803 21.0418 -20.8348 -22.3751 28.184 10.7294 19.1592 -1.37597e-14 -4.77083e-15 -10 -1.10909e-14 -7.95139e-15 -10 -3.18055e-15 0 3.18055e-15 19.9818 0.871897 2.3964 24 -3.18055e-15 -3.18055e-15 20 -6.75868e-15 -2.22639e-14 -3.18055e-15 0 3.18055e-15 20 -1.59028e-14 9.54166e-15 24 -5.56597e-15 3.18055e-15 20 -1.55052e-14 -2.8625e-14 -3.18055e-15 0 3.18055e-15 19.9748 -1.02565 -2.81938 24 -7.15625e-15 6.36111e-15 20 -1.98785e-15 -3.49861e-14 -3.18055e-15 0 3.18055e-15 19.7815 -3.00948 -8.30515 24 7.95139e-15 -9.54166e-15 20 1.30297e-14 -2.8625e-14 13.3664 -13.74 -29.2791 -38.9496 33.6156 -66.5841 2.99767 -78.9867 2.8008 -27.0759 -18.9131 10.779 -28.184 10.7294 -19.1592 -1.12164e-15 6.36111e-15 10 3.72279e-15 6.36111e-15 10 -6.36111e-15 6.36111e-15 -3.18055e-15 -19.9818 0.871897 -2.3964 -24 3.97569e-15 3.49861e-14 -20 0 -0 -6.36111e-15 6.36111e-15 -3.18055e-15 -20 -3.18055e-15 -0 -24 1.59028e-15 9.54166e-15 -20 4.77083e-15 9.54166e-15 -6.36111e-15 6.36111e-15 -3.18055e-15 -19.9748 -1.02565 2.81938 -24 -6.36111e-15 9.54166e-15 -20 -1.11319e-14 -1.27222e-14 -6.36111e-15 6.36111e-15 -3.18055e-15 -19.7815 -3.00948 8.30515 -24 3.18055e-15 2.8625e-14 -20 4.77083e-15 9.54166e-15 
0 0 0 0 0 -0 23.2995 13.2122 -70.9934 -17.1122 -51.5865 -18.7308 -0.888864 26.0303 -15.6048 11.5303 4.74933 26.3596 18.4756 -42.9005 4.88234 2.53566 32.1139 0.73725 -13.4942 -13.0588 -16.452 -8.56686 14.1601 16.2065 -1.76852 3.7209 3.81929 -2.94019 5.95429 6.18554 -0.0993761 -0.160117 -0.474899 -0.0994013 -0.160784 -0.475449 -1.89245 -3.14206 -8.44252 -0.153161 -15.4581 22.2401 72.7351 1.84625 52.1355 6.28385 -50.418 -6.42598 21.0426 -20.7281 -22.373 28.184 10.7294 19.1592 9.96927e-15 1.59028e-15 -10 1.31989e-14 1.59028e-15 -10 -3.18055e-15 -3.18055e-15 1.59028e-15 19.9818 0.871897 2.3964 24 1.11319e-14 9.54166e-15 20 5.56597e-15 1.27222e-14 -3.18055e-15 -3.18055e-15 1.59028e-15 20 -9.54166e-15 1.27222e-14 24 1.59028e-15 2.54444e-14 20 -8.94531e-15 9.54166e-15 -3.18055e-15 -3.18055e-15 1.59028e-15 19.9748 -1.02565 -2.81938 24 2.38542e-15 1.59028e-14 20 -4.17448e-15 3.18055e-15 -3.18055e-15 -3.18055e-15 1.59028e-15 19.7815 -3.00948 -8.30515 24 1.59028e-15 9.54166e-15 20 9.0944e-15 3.18055e-15 13.4029 -13.7299 -29.3591 -39.0323 33.5493 -66.5259 3.1241 -79.0084 2.90243 -27.2301 -18.9443 10.7088 -28.184 10.7294 -19.1592 -3.51003e-15 1.59028e-15 10 4.56402e-15 1.59028e-15 10 -6.36111e-15 -3.18055e-15 -0 -19.9818 0.871897 -2.3964 -24 1.11319e-14 2.22639e-14 -20 0 3.18055e-15 -6.36111e-15 -3.18055e-15 -0 -20 -1.59028e-14 6.36111e-15 -24 1.19271e-15 2.22639e-14 -20 3.18055e-15 9.54166e-15 -6.36111e-15 -3.18055e-15 -0 -19.9748 -1.02565 2.81938 -24 -7.95139e-15 1.59028e-14 -20 -7.95139e-15 9.54166e-15 -6.36111e-15 -3.18055e-15 -0 -19.7815 -3.00948 8.30515 -24 9.54166e-15 2.54444e-14 -20 1.59028e-15 9.54166e-15 
0 0 0 0 0 -0 23.3085 13.1883 -71.0466 -17.085 -51.6044 -18.7056 -0.908189 26.0123 -15.5522 11.5201 4.7708 26.3554 18.4766 -42.8909 4.88672 2.51281 32.1335 0.774276 -13.4813 -13.0768 -16.4306 -8.56372 14.1546 16.1958 -1.76852 3.7209 3.81929 -2.94019 5.95429 6.18554 -0.0993761 -0.160117 -0.474899 -0.0994013 -0.160784 -0.475449 -1.87711 -3.09469 -8.46902 -0.138389 -15.4253 22.2494 72.7322 1.82253 52.1433 6.46046 -50.4795 -6.2322 21.0174 -20.5763 -22.4114 28.184 10.7294 19.1592 -1.33391e-14 -2.38542e-15 -10 5.61801e-15 -4.77083e-15 -10 -0 0 3.18055e-15 19.9818 0.871897 2.3964 24 1.27222e-14 -6.36111e-15 20 -1.59028e-15 -9.54166e-15 -0 0 3.18055e-15 20 -1.74931e-14 1.27222e-14 24 0 1.59028e-14 20 -1.41137e-14 6.36111e-15 -0 0 3.18055e-15 19.9748 -1.02565 -2.81938 24 -1.59028e-15 -0 20 2.18663e-15 -3.18055e-15 -0 0 3.18055e-15 19.7815 -3.00948 -8.30515 24 2.06736e-14 -9.54166e-15 20 8.77137e-15 -0 13.4068 -13.7037 -29.3869 -39.0372 33.5211 -66.541 3.40119 -78.9382 3.16788 -27.5441 -19.0832 10.5762 -28.184 10.7294 -19.1592 4.56402e-15 1.59028e-15 10 -4.93175e-16 -6.36111e-15 10 -2.22639e-14 0 3.18055e-15 -19.9818 0.871897 -2.3964 -24 3.57812e-15 2.22639e-14 -20 -6.36111e-15 -9.54166e-15 -2.22639e-14 0 3.18055e-15 -20 -4.77083e-15 3.18055e-15 -24 3.18055e-15 2.22639e-14 -20 1.11319e-14 1.59028e-14 -2.22639e-14 0 3.18055e-15 -19.9748 -1.02565 2.81938 -24 -7.15625e-15 1.27222e-14 -20 -7.95139e-15 -1.27222e-14 -2.22639e-14 0 3.18055e-15 -19.7815 -3.00948 8.30515 -24 7.95139e-15 2.22639e-14 -20 -9.54166e-15 2.54444e-14 
0 0 0 0 0 -0 23.3254 13.1562 -71.1156 -17.0425 -51.6277 -18.6504 -0.929146 25.9866 -15.4982 11.5126 4.79715 26.3455 18.4857 -42.8809 4.90873 2.48143 32.1637 0.823958 -13.4711 -13.1042 -16.417 -8.57078 14.1419 16.1926 -1.77079 3.7209 3.81929 -2.93971 5.94984 6.18549 -0.0993761 -0.160117 -0.474899 -0.0994013 -0.160784 -0.475449 -1.88384 -3.06604 -8.46484 -0.117877 -15.3857 22.2581 72.7377 1.79463 52.149 6.57822 -50.6916 -6.12064 21.072 -20.2752 -22.4775 28.184 10.7294 19.1592 -2.94921e-15 1.59028e-15 -10 -3.79044e-15 -3.18055e-15 -10 -6.36111e-15 0 1.59028e-15 19.9818 0.871897 2.3964 24 8.74653e-15 2.8625e-14 20 8.34896e-15 1.59028e-14 -6.36111e-15 0 1.59028e-15 20 -1.43125e-14 2.8625e-14 24 2.38542e-15 3.18055e-14 20 2.38542e-15 2.22639e-14 -6.36111e-15 0 1.59028e-15 19.9748 -1.02565 -2.81938 24 7.95139e-16 1.27222e-14 20 4.17448e-15 3.18055e-15 -6.36111e-15 0 1.59028e-15 19.7815 -3.00948 -8.30515 24 1.43125e-14 1.27222e-14 20 2.35808e-14 3.49861e-14 13.3892 -13.6627 -29.3983 -38.9785 33.4813 -66.6022 3.65852 -78.7914 3.51259 -27.9006 -19.3084 10.4043 -28.184 10.7294 -19.1592 4.93175e-16 6.36111e-15 10 7.73584e-16 4.77083e-15 10 -1.27222e-14 3.18055e-15 6.36111e-15 -19.9818 0.871897 -2.3964 -24 5.56597e-15 9.54166e-15 -20 -1.59028e-15 -6.36111e-15 -1.27222e-14 3.18055e-15 6.36111e-15 -20 -6.36111e-15 9.54166e-15 -24 -2.38542e-15 2.22639e-14 -20 4.77083e-15 -0 -1.27222e-14 3.18055e-15 6.36111e-15 -19.9748 -1.02565 2.81938 -24 7.95139e-16 1.59028e-14 -20 -7.95139e-15 -6.36111e-15 -1.27222e-14 3.18055e-15 6.36111e-15 -19.7815 -3.00948 8.30515 -24 8.74653e-15 1.59028e-14 -20 6.36111e-15 3.18055e-15 
